<svg width="144" height="144" viewBox="0 0 144 144" fill="none" xmlns="http://www.w3.org/2000/svg">
<path d="M140 72C140 109.555 109.555 140 72 140C34.4446 140 4 109.555 4 72C4 34.4446 34.4446 4 72 4C109.555 4 140 34.4446 140 72Z" fill="#9B9595" style="mix-blend-mode:overlay"/>
<path d="M140 72C140 109.555 109.555 140 72 140C34.4446 140 4 109.555 4 72C4 34.4446 34.4446 4 72 4C109.555 4 140 34.4446 140 72Z" stroke="black" stroke-width="8"/>
<path d="M41.8398 68.6953H61.9492V76.6758H41.8398V90.8789H64.832V99H30.8359V47.9531H64.0938V56.0742H41.8398V68.6953ZM91.0234 76.3945C89.3359 74.0039 86.6992 69.75 83.1133 63.6328V99H73.0938V47.9531H81.8125L97.3516 70.1367C99.3203 72.9258 102.062 77.2383 105.578 83.0742V47.9531H115.633V99H106.844L91.0234 76.3945Z" fill="black"/>
</svg>
