<svg width="144" height="144" viewBox="0 0 144 144" fill="none" xmlns="http://www.w3.org/2000/svg">
<path d="M140 72C140 109.555 109.555 140 72 140C34.4446 140 4 109.555 4 72C4 34.4446 34.4446 4 72 4C109.555 4 140 34.4446 140 72Z" fill="#9B9595" style="mix-blend-mode:overlay"/>
<path d="M140 72C140 109.555 109.555 140 72 140C34.4446 140 4 109.555 4 72C4 34.4446 34.4446 4 72 4C109.555 4 140 34.4446 140 72Z" stroke="black" stroke-width="8"/>
<path d="M41.6992 99H30.8359V47.9531H48.3438C54.7188 47.9531 59.6055 49.3125 63.0039 52.0312C66.4258 54.7266 68.1367 58.6758 68.1367 63.8789C68.1367 67.0898 67.3164 69.8672 65.6758 72.2109C64.0352 74.5547 61.7031 76.3594 58.6797 77.625L69.8594 99H58.1172L48.7656 79.5586H41.6992V99ZM47.8867 71.6484C51.0508 71.6484 53.3828 71.0156 54.8828 69.75C56.4062 68.4609 57.168 66.5039 57.168 63.8789C57.168 61.1836 56.4062 59.2148 54.8828 57.9727C53.3828 56.707 51.0508 56.0742 47.8867 56.0742H41.6992V71.6484H47.8867ZM118.797 81.5625C118.797 87.4688 116.969 91.9688 113.312 95.0625C109.656 98.1562 104.371 99.7031 97.457 99.7031C90.4492 99.7031 85.1406 98.168 81.5312 95.0977C77.9453 92.0273 76.1523 87.5156 76.1523 81.5625V47.9531H87.1914V81.7031C87.1914 87.8906 90.6133 90.9961 97.457 91.0195C104.324 91.0195 107.758 87.9141 107.758 81.7031V47.9531H118.797V81.5625Z" fill="black"/>
</svg>
