<svg width="144" height="144" viewBox="0 0 144 144" fill="none" xmlns="http://www.w3.org/2000/svg">
<path d="M17.2072 11.1935V11.7847C9.66962 9.11555 3.88001 8.40772 3.52474 8.3662C2.56638 8.25386 1.60781 8.5744 0.924347 9.23583C0.240883 9.89686 -0.0915107 10.8259 0.0218053 11.7558C0.124629 12.5979 2.70383 32.5223 17.2072 46.6183V81.8141H7.76423C6.02588 81.8141 4.61656 83.1809 4.61656 84.8668L4.61656 93.0075C4.61656 99.1796 9.79406 104.201 16.158 104.201H79.1114C85.4753 104.201 90.6528 99.1796 90.6528 93.0075V22.3869H104.293C106.031 22.3869 107.44 21.0201 107.44 19.3342V11.1935C107.44 5.02139 102.263 0 95.8989 0H28.7487C22.3847 0 17.2072 5.02139 17.2072 11.1935ZM7.10049 15.2349C11.2902 16.1829 17.9673 18.1182 24.6383 21.8055L26.7699 32.1428C26.9975 33.2468 27.8333 34.1397 28.9443 34.4659C30.0552 34.7921 31.2614 34.4989 32.0823 33.7027L35.7827 30.1137C42.0904 36.5367 45.7826 44.3506 47.8886 50.4715L35.0499 38.0199C33.8208 36.8277 31.8277 36.8277 30.5985 38.0199C29.3692 39.2117 29.3692 41.1447 30.5985 42.3372L43.4368 54.7884C36.8846 52.6683 28.4526 48.8906 21.6954 42.3374C12.4945 33.4139 8.59584 21.4738 7.10049 15.2349V15.2349ZM16.158 98.0955C13.2653 98.0955 10.9119 95.813 10.9119 93.0075V87.9196H67.5699V93.0075C67.5699 94.8384 68.0255 96.5683 68.8326 98.0955H16.158ZM84.3575 93.0075C84.3575 95.813 82.0041 98.0955 79.1114 98.0955C76.2187 98.0955 73.8653 95.813 73.8653 93.0075V84.8668C73.8653 83.1809 72.4559 81.8141 70.7176 81.8141H23.5026V51.8253C35.1783 60.0676 48.2372 62.603 52.1122 63.2024L60.2749 71.119C61.5042 72.3112 63.4971 72.3112 64.7263 71.119C65.341 70.5229 65.6484 69.7418 65.6484 68.9605C65.6484 68.1794 65.341 67.3979 64.7263 66.802L56.5636 58.8852C55.8316 54.4332 52.2995 37.4808 39.5017 25.0687C39.0787 24.6584 38.664 24.2961 38.263 23.9457C38.1279 23.8276 37.9928 23.7096 37.8582 23.5903C36.6155 22.4887 34.699 22.5304 33.5086 23.685L31.7895 25.352L30.5347 19.2664C30.3613 18.4255 29.8313 17.694 29.0742 17.2512C27.2059 16.1581 25.3351 15.1952 23.5026 14.3466V11.1935C23.5026 8.38798 25.856 6.10553 28.7487 6.10553H85.6239C84.8162 7.63333 84.3575 9.36181 84.3575 11.1935V19.3342L84.3575 93.0075ZM101.145 11.1935V16.2814H90.6528V11.1935C90.6528 8.38798 93.0062 6.10553 95.8989 6.10553C98.7917 6.10553 101.145 8.38798 101.145 11.1935Z" fill="#9B7F7F"/>
<path d="M140 91.8995C140 118.35 117.856 140 90.2798 140C62.7037 140 40.5596 118.35 40.5596 91.8995C40.5596 65.4489 62.7037 43.799 90.2798 43.799C117.856 43.799 140 65.4489 140 91.8995Z" fill="#9B9595" style="mix-blend-mode:overlay"/>
<path d="M140 91.8995C140 118.35 117.856 140 90.2798 140C62.7037 140 40.5596 118.35 40.5596 91.8995C40.5596 65.4489 62.7037 43.799 90.2798 43.799C117.856 43.799 140 65.4489 140 91.8995Z" stroke="black" stroke-width="8"/>
<path d="M66.3452 106.653H59.103V72.622H70.7749C75.0249 72.622 78.2827 73.5283 80.5483 75.3408C82.8296 77.1376 83.9702 79.7704 83.9702 83.2392C83.9702 85.3798 83.4233 87.2314 82.3296 88.7939C81.2358 90.3564 79.6812 91.5595 77.6655 92.4033L85.1187 106.653H77.2905L71.0562 93.6923H66.3452V106.653ZM70.4702 88.4189C72.5796 88.4189 74.1343 87.997 75.1343 87.1533C76.1499 86.2939 76.6577 84.9892 76.6577 83.2392C76.6577 81.4423 76.1499 80.1298 75.1343 79.3017C74.1343 78.4579 72.5796 78.0361 70.4702 78.0361H66.3452V88.4189H70.4702ZM117.744 95.0283C117.744 98.9658 116.525 101.966 114.087 104.028C111.65 106.091 108.126 107.122 103.517 107.122C98.8452 107.122 95.3062 106.099 92.8999 104.052C90.5093 102.005 89.314 98.997 89.314 95.0283V72.622H96.6733V95.122C96.6733 99.247 98.9546 101.317 103.517 101.333C108.095 101.333 110.384 99.2626 110.384 95.122V72.622H117.744V95.0283Z" fill="black"/>
</svg>
