<svg height="511pt" viewBox="-10 1 511 511.99948" width="511pt" xmlns="http://www.w3.org/2000/svg"><path d="m151.199219 458.316406c-1.601563 0-3.222657-.382812-4.730469-1.1875-28.464844-15.191406-55.832031-34.535156-81.339844-57.488281-.101562-.089844-.199218-.179687-.292968-.273437-50.550782-49.300782-61.730469-95.894532-63.894532-119.277344-3.335937-36.054688 12.390625-65.492188 40.066406-75.003906 27.226563-9.359376 56.507813-4.03125 84.125.441406 4.09375.660156 8.257813.9375 12.375.820312 5.542969-.15625 10.183594 4.21875 10.339844 9.773438.15625 5.558594-4.21875 10.1875-9.773437 10.34375-5.378907.152344-10.804688-.207032-16.140625-1.066406-24.144532-3.917969-50.511719-9.484376-74.386719-1.28125-14.792969 5.085937-29.539063 21.96875-26.5625 54.113281 1.90625 20.609375 11.949219 61.839843 57.757813 106.585937 24.253906 21.804688 50.230468 40.160156 77.203124 54.558594 8.984376 4.796875 5.527344 18.941406-4.746093 18.941406zm0 0"/><path d="m288.878906 496.707031c-15.425781 0-56.230468-2.328125-108.171875-23.492187-11.964843-4.875-4.390625-23.519532 7.59375-18.636719 6.023438 2.453125 60.152344 23.917969 104.933594 21.921875.800781-.039062 1.589844-.0625 2.394531-.078125 6.792969-.144531 67.75-2.296875 115.675782-33.40625 10.835937-7.035156 21.808593 9.835937 10.957031 16.882813-51.507813 33.433593-114.171875 36.390624-126.210938 36.644531-2.390625.050781-4.773437.164062-7.171875.164062zm0 0"/><path d="m489.894531 300.070312c-19.011719-163.097656-155.054687-188.390624-196.296875-192.257812-12.472656-1.167969-24.53125-.253906-35.832031 2.726562-20.550781 5.417969-37.25 16.792969-49.242187 33.351563-3.410157-14.585937-10.390626-29.003906-15.476563-43.097656 5.601563-7.273438 14.539063-21.921875 14.207031-41.105469-.34375-20.027344-10.464844-39.226562-30.078125-57.070312-3.988281-3.625-10.125-3.464844-13.917969.359374-2.316406 2.339844-3.257812 5.535157-2.808593 8.574219-.777344 2.230469-4.257813 9.902344-19.234375 27.796875-9.804688 11.714844-13.964844 23.898438-12.367188 36.210938 1.570313 12.101562 8.328125 21.035156 13.4375 26.21875-4.441406 13.289062-14.296875 30.375-14.296875 44.429687v82.671875c0 .210938.007813.421875.019531.632813l1.59375 25.378906c-8.542968-8.722656-20.441406-14.148437-33.589843-14.148437-25.941407 0-47.050781 21.105468-47.050781 47.050781 0 25.945312 21.109374 47.050781 47.050781 47.050781 15.261719 0 28.839843-7.308594 37.445312-18.601562l11.050781 176.011718c.695313 11.070313 11.1875 19.746094 23.882813 19.746094s23.183594-8.675781 23.882813-19.75l16.496093-262.742188c.015625-.207031.023438-.417968.023438-.628906v-43.039062c2.613281-4.203125 4.898437-8.628906 6.761719-13.226563 9.078124-22.390625 25.003906-36.730469 47.339843-42.613281 9.011719-2.375 18.707031-3.101562 28.824219-2.152344 20.503906 1.921875 60.460938 8.820313 97.71875 33.398438 46.011719 30.359375 73.085938 77.847656 80.464844 141.152344 3.75 32.167968.46875 60.496093-9.753906 84.191406-5.046876 11.699218 13.320312 19.929687 18.476562 7.972656 11.640625-26.980469 15.429688-58.773438 11.269531-94.492188zm-393.882812 14.648438c-14.847657 0-26.925781-12.078125-26.925781-26.925781 0-14.847657 12.078124-26.925781 26.925781-26.925781 14.847656 0 26.925781 12.078124 26.925781 26.925781 0 14.847656-12.078125 26.925781-26.925781 26.925781zm65.167969-205.984375h13.335937l9.882813 27.382813h-32.371094zm-4.53125-56.472656c7.789062-9.304688 13.609374-17.09375 17.582031-23.628907 8.328125 10.308594 12.65625 20.75 12.894531 31.164063.3125 13.425781-6.351562 23.96875-10.074219 28.785156h-19.449219c-2.949218-2.785156-7.917968-8.464843-8.8125-15.746093-.792968-6.46875 1.851563-13.394532 7.859376-20.574219zm32.019531 176.300781-16.460938 262.082031c-1.664062 1.746094-5.96875 1.746094-7.632812 0l-16.457031-262.082031v-72.292969h40.550781zm0 0"/><path d="m289.277344 157.222656c-25.941406 0-47.050782 21.105469-47.050782 47.050782 0 25.941406 21.109376 47.050781 47.050782 47.050781 25.945312 0 47.054687-21.109375 47.054687-47.050781 0-25.945313-21.109375-47.050782-47.054687-47.050782zm0 73.976563c-14.84375 0-26.925782-12.078125-26.925782-26.925781 0-14.847657 12.082032-26.925782 26.925782-26.925782 14.847656 0 26.929687 12.078125 26.929687 26.925782 0 14.847656-12.082031 26.925781-26.929687 26.925781zm0 0"/><path d="m391.0625 218.839844c-25.945312 0-47.050781 21.109375-47.050781 47.050781 0 25.945313 21.109375 47.054687 47.050781 47.054687 25.945312 0 47.050781-21.109374 47.050781-47.054687 0-25.941406-21.105469-47.050781-47.050781-47.050781zm0 73.980468c-14.84375 0-26.925781-12.082031-26.925781-26.925781 0-14.847656 12.082031-26.925781 26.925781-26.925781 14.847656 0 26.925781 12.078125 26.925781 26.925781.003907 14.84375-12.078125 26.925781-26.925781 26.925781zm0 0"/><path d="m371.734375 331.183594c-25.945313 0-47.050781 21.109375-47.050781 47.054687 0 25.941407 21.105468 47.050781 47.050781 47.050781s47.050781-21.109374 47.050781-47.050781c0-25.945312-21.105468-47.054687-47.050781-47.054687zm0 73.980468c-14.847656 0-26.925781-12.082031-26.925781-26.925781 0-14.847656 12.078125-26.925781 26.925781-26.925781s26.925781 12.078125 26.925781 26.925781c0 14.847657-12.078125 26.925781-26.925781 26.925781zm0 0"/><path d="m256.070312 350.726562c-25.941406 0-47.050781 21.105469-47.050781 47.050782 0 25.945312 21.109375 47.050781 47.050781 47.050781 25.945313 0 47.054688-21.105469 47.054688-47.050781 0-25.945313-21.109375-47.050782-47.054688-47.050782zm0 73.976563c-14.84375 0-26.925781-12.078125-26.925781-26.925781s12.082031-26.925782 26.925781-26.925782c14.847657 0 26.929688 12.078126 26.929688 26.925782s-12.082031 26.925781-26.929688 26.925781zm0 0"/><path d="m457.480469 421.308594c-2.078125-5.074219-8.089844-7.53125-13.140625-5.445313-5.070313 2.09375-7.539063 8.078125-5.445313 13.144531 2.097657 5.0625 8.078125 7.539063 13.144531 5.441407 5.050782-2.09375 7.546876-8.085938 5.441407-13.140625zm0 0"/></svg>