<svg width="144" height="145" viewBox="0 0 144 145" fill="none" xmlns="http://www.w3.org/2000/svg">
<path d="M140 72.5919C140 110.147 109.555 140.592 72 140.592C34.4446 140.592 4 110.147 4 72.5919C4 35.0366 34.4446 4.59192 72 4.59192C109.555 4.59192 140 35.0366 140 72.5919Z" fill="#9B9595" style="mix-blend-mode:overlay"/>
<path d="M140 72.5919C140 110.147 109.555 140.592 72 140.592C34.4446 140.592 4 110.147 4 72.5919C4 35.0366 34.4446 4.59192 72 4.59192C109.555 4.59192 140 35.0366 140 72.5919Z" stroke="black" stroke-width="8"/>
<path d="M34.8359 48.2091H45.8398V99.256H34.8359V48.2091ZM78.043 99.256H65.4922L46.8594 71.9747L63.9102 48.2091H76.3203L58.8125 71.8341L78.043 99.256ZM116.891 48.0685V55.2052L92.5625 90.9591H116.68V99.256H80.082V92.049L104.34 56.4005H80.8906V48.0685H116.891Z" fill="black"/>
</svg>
