<svg width="144" height="144" viewBox="0 0 144 144" fill="none" xmlns="http://www.w3.org/2000/svg">
<path d="M17.2074 11.1935V11.7847C9.66974 9.11555 3.88013 8.40772 3.52486 8.3662C2.5665 8.25386 1.60793 8.5744 0.924469 9.23583C0.241005 9.89686 -0.0913887 10.8259 0.0219274 11.7558C0.124751 12.5979 2.70395 32.5223 17.2074 46.6183V81.8141H7.76435C6.026 81.8141 4.61668 83.1809 4.61668 84.8668L4.61668 93.0075C4.61668 99.1796 9.79418 104.201 16.1581 104.201H79.1115C85.4755 104.201 90.653 99.1796 90.653 93.0075V22.3869H104.293C106.031 22.3869 107.441 21.0201 107.441 19.3342V11.1935C107.441 5.02139 102.263 0 95.8991 0H28.7488C22.3849 0 17.2074 5.02139 17.2074 11.1935ZM7.10061 15.2349C11.2904 16.1829 17.9674 18.1182 24.6384 21.8055L26.77 32.1428C26.9977 33.2468 27.8335 34.1397 28.9444 34.4659C30.0553 34.7921 31.2615 34.4989 32.0824 33.7027L35.7828 30.1137C42.0905 36.5367 45.7827 44.3506 47.8887 50.4715L35.05 38.0199C33.821 36.8277 31.8279 36.8277 30.5986 38.0199C29.3693 39.2117 29.3693 41.1447 30.5986 42.3372L43.4369 54.7884C36.8847 52.6683 28.4527 48.8906 21.6955 42.3374C12.4947 33.4139 8.59597 21.4738 7.10061 15.2349V15.2349ZM16.1581 98.0955C13.2654 98.0955 10.912 95.813 10.912 93.0075V87.9196H67.5701V93.0075C67.5701 94.8384 68.0256 96.5683 68.8327 98.0955H16.1581ZM84.3576 93.0075C84.3576 95.813 82.0042 98.0955 79.1115 98.0955C76.2188 98.0955 73.8654 95.813 73.8654 93.0075V84.8668C73.8654 83.1809 72.4561 81.8141 70.7177 81.8141H23.5027V51.8253C35.1784 60.0676 48.2373 62.603 52.1123 63.2024L60.275 71.119C61.5043 72.3112 63.4972 72.3112 64.7264 71.119C65.3411 70.5229 65.6485 69.7418 65.6485 68.9605C65.6485 68.1794 65.3411 67.3979 64.7264 66.802L56.5637 58.8852C55.8318 54.4332 52.2997 37.4808 39.5019 25.0687C39.0788 24.6584 38.6642 24.2961 38.2632 23.9457C38.128 23.8276 37.9929 23.7096 37.8584 23.5903C36.6157 22.4887 34.6992 22.5304 33.5087 23.685L31.7897 25.352L30.5348 19.2664C30.3615 18.4255 29.8314 17.694 29.0743 17.2512C27.206 16.1581 25.3353 15.1952 23.5027 14.3466V11.1935C23.5027 8.38798 25.8561 6.10553 28.7488 6.10553H85.624C84.8163 7.63333 84.3576 9.36181 84.3576 11.1935V19.3342L84.3576 93.0075ZM101.145 11.1935V16.2814H90.653V11.1935C90.653 8.38798 93.0064 6.10553 95.8991 6.10553C98.7918 6.10553 101.145 8.38798 101.145 11.1935Z" fill="#9B7F7F"/>
<path d="M140 91.8995C140 118.35 117.856 140 90.2798 140C62.7037 140 40.5596 118.35 40.5596 91.8995C40.5596 65.4489 62.7037 43.799 90.2798 43.799C117.856 43.799 140 65.4489 140 91.8995Z" fill="#9B9595" style="mix-blend-mode:overlay"/>
<path d="M140 91.8995C140 118.35 117.856 140 90.2798 140C62.7037 140 40.5596 118.35 40.5596 91.8995C40.5596 65.4489 62.7037 43.799 90.2798 43.799C117.856 43.799 140 65.4489 140 91.8995Z" stroke="black" stroke-width="8"/>
<path d="M59.103 72.622H66.439V106.653H59.103V72.622ZM87.9077 106.653H79.5405L67.1187 88.4658L78.4858 72.622H86.7593L75.0874 88.372L87.9077 106.653ZM113.806 72.5283V77.2861L97.5874 101.122H113.666V106.653H89.2671V101.849L105.439 78.0829H89.8062V72.5283H113.806Z" fill="black"/>
</svg>
